PathFileType	4	(X/Y/Z)	Walk6.trc
DataRate	CameraRate	NumFrames	NumMarkers	Units	OrigDataRate	OrigDataStartFrame	OrigNumFrames
200.000000	200.000000	8	59	mm	200.000000	382	500
Frame#	Times		LFHD		LBHD		C7		T10		RBack		LPSI		RPSI		RElbowM		RCAR		LUA1		LElbowM		LLFC		LCAR		RUA1		RFA1		RWRR		CLAV		LACR1		RTH3		RTB1		LWRU		RBHD		RACR1		RTB4		LFA1		LWRR		RTH2		RTB3		RToe		RElbow		RMT1		STRN		RWRU		RFHD		RTH4		RLFC		RCAL		RMT5		RTH1		RTB2		LTH3		LTH4		RMMAL		LTH1		LElbow		LTH2		LTB3		RLMAL		LTB2		RASI		LCAL		LMT1		LASI		LLMAL		LMT5		LToe		LTB1		LMMAL		LTB4
			X1	Y1	Z1	X2	Y2	Z2	X3	Y3	Z3	X4	Y4	Z4	X5	Y5	Z5	X6	Y6	Z6	X7	Y7	Z7	X8	Y8	Z8	X9	Y9	Z9	X10	Y10	Z10	X11	Y11	Z11	X12	Y12	Z12	X13	Y13	Z13	X14	Y14	Z14	X15	Y15	Z15	X16	Y16	Z16	X17	Y17	Z17	X18	Y18	Z18	X19	Y19	Z19	X20	Y20	Z20	X21	Y21	Z21	X22	Y22	Z22	X23	Y23	Z23	X24	Y24	Z24	X25	Y25	Z25	X26	Y26	Z26	X27	Y27	Z27	X28	Y28	Z28	X29	Y29	Z29	X30	Y30	Z30	X31	Y31	Z31	X32	Y32	Z32	X33	Y33	Z33	X34	Y34	Z34	X35	Y35	Z35	X36	Y36	Z36	X37	Y37	Z37	X38	Y38	Z38	X39	Y39	Z39	X40	Y40	Z40	X41	Y41	Z41	X42	Y42	Z42	X43	Y43	Z43	X44	Y44	Z44	X45	Y45	Z45	X46	Y46	Z46	X47	Y47	Z47	X48	Y48	Z48	X49	Y49	Z49	X50	Y50	Z50	X51	Y51	Z51	X52	Y52	Z52	X53	Y53	Z53	X54	Y54	Z54	X55	Y55	Z55	X56	Y56	Z56	X57	Y57	Z57	X58	Y58	Z58	X59	Y59	Z59

382	1.91	537.98	1459.4	-28.099	365.17	1471.3	-48.346	326.23	1337.4	22.486	291.09	1066	14.747	302.28	1234.3	153.85	276.9	868.55	-32.168	266.62	889.16	64.808	402	931.04	227.22	610.23	770.65	305.83	378.93	1101.9	-229.01	304.78	957.38	-180.4	580.67	454.38	-124.7	415.06	701.98	-301.8	432.48	1123.8	255.85	490.93	864.52	300.6	613.32	817.45	260.82	449.52	1255.6	23.016	396.15	1270.9	-144.32	341.15	544.49	176.13	316.19	322.41	63.089	368.89	747.13	-313.12	365.86	1475.7	75.381	401.11	1274.5	174.16	283.85	236.05	61.667	346.57	868.52	-283.83	407.59	739.12	-253.07	434.66	627.32	172.06	263.21	144.07	54.748	355.98	23.982	30.72	441	982.77	299.72	297.9	42.232	26.018	511.22	1150.6	18.831	554.87	774.17	277.32	543.98	1465.7	48.821	363.65	633.4	203.9	329.71	445.05	154.27	147.49	57.036	79.342	281.69	33.549	84.003	387.24	715.33	232.13	267.36	236.64	132.55	560.15	564.48	-134.56	517.58	645.32	-155.12	208.08	81.045	18.165	469.76	723.92	-177.33	333.44	989.6	-247.31	566.86	686.64	-118.82	718.12	193.86	-46.374	213.03	70.835	98.894	651.35	266.55	-114.02	419.73	882.15	162.55	685.91	32.451	-37.292	819.64	110.77	-56.444	482.39	845.76	-140.71	706.91	81.966	-85.6	800.1	82.719	-105.52	867.74	115.06	-77.575	660.38	367.58	-52.086	732.89	97.488	-12.117	680.01	277.37	-49.472
383	1.915	543.61	1458.5	-28.791	370.81	1470.6	-49.131	331.76	1336.7	21.663	296.77	1065.2	14.051	307.76	1233.6	153.11	282.9	867.92	-33.06	272.23	888.67	63.806	408.06	930.34	226.64	616.81	770.38	304.76	384.32	1101.1	-229.59	310.26	956.53	-180.63	586.66	453.74	-124.47	419.6	700.97	-302.35	438.31	1123.2	255.16	497.33	864.03	299.79	619.72	817.17	259.71	455.12	1254.9	22.368	401.87	1270.1	-145.04	344.88	544.25	176.09	319.12	322.05	63.084	373.51	746.23	-313.57	371.44	1475	74.597	406.52	1273.9	173.48	285.94	236.04	61.591	351.48	867.65	-284.24	412.4	738.16	-253.62	438.76	626.7	172.7	264.39	144.24	54.737	356	24.012	30.675	447.23	982.2	298.95	298.08	42.335	25.977	516.9	1150	18.41	561.38	773.8	276.38	549.57	1464.9	48.135	367.52	633.1	203.97	333.29	444.78	154.24	147.78	58.334	79.271	281.81	33.7	83.95	391.25	714.99	232.18	269.33	236.87	132.54	565.93	563.75	-134.38	523.22	644.48	-155.06	208.65	81.795	18.14	475.22	722.98	-177.16	338.64	988.75	-247.67	572.6	685.92	-119.01	725.73	194.02	-45.878	213.47	71.542	98.858	658.93	266.46	-113.75	429.04	882.34	162.32	694.65	32.242	-37.566	828.02	111.53	-55.738	488.94	844.81	-140.45	715.62	82.16	-85.576	808.82	83.607	-105.03	876.17	116.17	-76.52	666.72	367.36	-51.389	740.98	97.71	-11.831	687.04	277.27	-48.955
384	1.92	549.24	1457.8	-29.505	376.45	1469.9	-49.947	337.29	1336	20.802	302.48	1064.4	13.351	313.26	1232.9	152.33	288.95	867.32	-33.938	277.9	888.19	62.818	414.07	929.7	226.03	623.28	770.11	303.69	389.76	1100.2	-230.2	315.79	955.7	-180.86	592.74	453.17	-124.21	424.2	699.99	-302.9	444.12	1122.7	254.46	503.65	863.56	298.97	626.04	816.87	258.6	460.74	1254.3	21.688	407.6	1269.2	-145.8	348.71	544.02	176.04	322.13	321.69	63.089	378.2	745.36	-314.01	377.01	1474.3	73.784	411.95	1273.3	172.76	288.09	236.05	61.528	356.45	866.81	-284.65	417.27	737.22	-254.16	442.95	626.09	173.3	265.61	144.44	54.742	356.01	24.039	30.625	453.42	981.67	298.15	298.27	42.452	25.95	522.61	1149.4	17.949	567.79	773.42	275.42	555.15	1464.2	47.427	371.5	632.82	204	336.97	444.51	154.22	148.11	59.71	79.239	281.96	33.863	83.916	395.35	714.67	232.19	271.38	237.12	132.55	571.82	563.1	-134.16	528.98	643.74	-154.96	209.25	82.599	18.148	480.81	722.16	-176.95	343.88	987.92	-248.04	578.47	685.3	-119.18	732.78	193.94	-45.296	213.95	72.298	98.853	666.14	266.27	-113.42	438.73	882.52	162.08	702.47	31.928	-37.737	835.63	111.85	-54.887	495.51	843.93	-140.18	723.52	82.165	-85.445	816.72	84.083	-104.39	883.84	116.73	-75.305	672.92	367.01	-50.654	748.26	97.693	-11.437	693.72	277.02	-48.383
385	1.925	554.85	1457	-30.239	382.07	1469.3	-50.794	342.82	1335.3	19.907	308.23	1063.7	12.65	318.77	1232.3	151.52	295.03	866.76	-34.797	283.63	887.72	61.847	420.03	929.13	225.38	629.64	769.83	302.63	395.25	1099.4	-230.82	321.37	954.91	-181.11	598.91	452.66	-123.91	428.87	699.04	-303.44	449.92	1122.2	253.73	509.89	863.12	298.12	632.26	816.56	257.51	466.38	1253.7	20.975	413.35	1268.5	-146.59	352.65	543.78	175.98	325.22	321.34	63.103	382.95	744.52	-314.46	382.56	1473.7	72.944	417.4	1272.8	172	290.3	236.07	61.48	361.47	866	-285.06	422.2	736.32	-254.7	447.24	625.51	173.84	266.87	144.68	54.764	356.03	24.065	30.569	459.57	981.19	297.34	298.47	42.585	25.935	528.35	1148.9	17.445	574.09	773.05	274.45	560.71	1463.5	46.7	375.58	632.53	203.99	340.77	444.25	154.22	148.49	61.166	79.25	282.14	34.039	83.899	399.54	714.36	232.18	273.5	237.39	132.57	577.81	562.55	-133.9	534.86	643.09	-154.82	209.89	83.459	18.187	486.54	721.43	-176.73	349.17	987.13	-248.43	584.48	684.77	-119.32	739.3	193.63	-44.627	214.47	73.104	98.879	672.99	265.96	-113.01	448.79	882.7	161.83	709.37	31.502	-37.8	842.48	111.73	-53.887	502.09	843.12	-139.91	730.62	81.966	-85.199	823.82	84.133	-103.59	890.78	116.72	-73.924	678.99	366.52	-49.886	754.75	97.421	-10.934	700.07	276.62	-47.755
386	1.93	560.46	1456.4	-30.994	387.69	1468.7	-51.67	348.37	1334.6	18.981	314.03	1063	11.951	324.32	1231.7	150.69	301.15	866.24	-35.634	289.42	887.27	60.898	425.94	928.64	224.7	635.89	769.55	301.57	400.79	1098.7	-231.46	327	954.16	-181.37	605.16	452.19	-123.57	433.6	698.12	-303.98	455.7	1121.8	252.99	516.05	862.71	297.25	638.38	816.24	256.43	472.03	1253.1	20.232	419.12	1267.7	-147.41	356.7	543.53	175.9	328.38	321	63.124	387.76	743.71	-314.9	388.1	1473.2	72.075	422.86	1272.3	171.21	292.57	236.13	61.447	366.55	865.23	-285.48	427.17	735.45	-255.23	451.62	624.94	174.32	268.18	144.97	54.804	356.03	24.087	30.508	465.67	980.76	296.5	298.69	42.734	25.932	534.13	1148.5	16.897	580.29	772.69	273.48	566.26	1462.8	45.952	379.78	632.25	203.95	344.69	443.98	154.22	148.91	62.708	79.301	282.35	34.226	83.9	403.85	714.06	232.13	275.69	237.69	132.6	583.91	562.08	-133.6	540.87	642.54	-154.63	210.56	84.378	18.259	492.43	720.82	-176.48	354.51	986.36	-248.83	590.62	684.32	-119.42	745.3	193.08	-43.873	215.05	73.963	98.935	679.46	265.52	-112.52	459.18	882.87	161.57	715.38	30.959	-37.751	848.59	111.17	-52.733	508.68	842.37	-139.63	736.93	81.557	-84.836	830.15	83.753	-102.63	897	116.14	-72.378	684.93	365.9	-49.087	760.49	96.89	-10.319	706.1	276.05	-47.07
387	1.935	566.05	1455.8	-31.768	393.29	1468.1	-52.573	353.92	1334	18.028	319.88	1062.3	11.257	329.89	1231.2	149.83	307.32	865.77	-36.445	295.28	886.85	59.971	431.81	928.22	223.99	642.02	769.27	300.51	406.39	1098	-232.12	332.66	953.44	-181.65	611.46	451.75	-123.19	438.4	697.24	-304.51	461.47	1121.4	252.23	522.13	862.33	296.38	644.42	815.91	255.36	477.71	1252.7	19.46	424.89	1267	-148.26	360.89	543.27	175.81	331.63	320.67	63.149	392.63	742.93	-315.34	393.62	1472.6	71.179	428.36	1271.8	170.39	294.91	236.2	61.429	371.68	864.48	-285.9	432.2	734.61	-255.76	456.11	624.38	174.74	269.54	145.31	54.864	356.04	24.107	30.442	471.73	980.38	295.66	298.93	42.9	25.941	539.95	1148.1	16.304	586.37	772.34	272.52	571.8	1462.3	45.186	384.11	631.96	203.87	348.72	443.72	154.22	149.38	64.34	79.394	282.58	34.426	83.919	408.29	713.76	232.04	277.97	238.01	132.64	590.1	561.67	-133.27	547.01	642.08	-154.41	211.27	85.36	18.363	498.49	720.3	-176.23	359.9	985.62	-249.24	596.9	683.93	-119.47	750.8	192.29	-43.036	215.67	74.876	99.018	685.57	264.96	-111.96	469.86	883.04	161.3	720.54	30.305	-37.59	854	110.17	-51.424	515.28	841.69	-139.37	742.49	80.941	-84.353	835.75	82.953	-101.51	902.55	115.01	-70.666	690.74	365.15	-48.259	765.5	96.103	-9.5921	711.81	275.32	-46.33
388	1.94	571.63	1455.2	-32.56	398.89	1467.6	-53.502	359.48	1333.4	17.052	325.78	1061.7	10.571	335.5	1230.7	148.95	313.53	865.34	-37.229	301.19	886.45	59.069	437.64	927.87	223.25	648.04	768.99	299.48	412.03	1097.2	-232.79	338.35	952.76	-181.95	617.8	451.34	-122.77	443.27	696.4	-305.04	467.22	1121.1	251.45	528.12	861.99	295.49	650.36	815.57	254.31	483.42	1252.2	18.658	430.68	1266.4	-149.12	365.21	543.02	175.7	334.97	320.36	63.178	397.57	742.18	-315.78	399.13	1472.2	70.258	433.89	1271.5	169.55	297.32	236.31	61.426	376.86	863.77	-286.32	437.29	733.81	-256.28	460.72	623.85	175.11	270.94	145.7	54.943	356.04	24.124	30.372	477.75	980.05	294.8	299.19	43.083	25.959	545.81	1147.8	15.666	592.35	771.99	271.55	577.32	1461.8	44.402	388.58	631.68	203.76	352.89	443.46	154.23	149.91	66.066	79.526	282.85	34.638	83.955	412.84	713.47	231.93	280.34	238.36	132.69	596.38	561.33	-132.9	553.28	641.69	-154.15	212.02	86.407	18.498	504.74	719.89	-175.97	365.34	984.91	-249.67	603.32	683.6	-119.46	755.84	191.28	-42.121	216.35	75.847	99.131	691.33	264.27	-111.31	480.82	883.19	161.03	724.9	29.552	-37.323	858.76	108.75	-49.962	521.89	841.07	-139.11	747.35	80.128	-83.753	840.64	81.75	-100.23	907.45	113.34	-68.791	696.42	364.27	-47.404	769.83	95.071	-8.7567	717.23	274.45	-45.537
389	1.945	577.2	1454.7	-33.369	404.47	1467.2	-54.455	365.05	1332.9	16.058	331.74	1061	9.8956	341.14	1230.2	148.06	319.78	864.96	-37.985	307.18	886.08	58.195	443.41	927.6	222.47	653.95	768.7	298.45	417.72	1096.6	-233.47	344.08	952.12	-182.27	624.17	450.94	-122.3	448.21	695.6	-305.56	472.97	1120.9	250.67	534.02	861.68	294.59	656.2	815.22	253.29	489.14	1251.9	17.83	436.47	1265.8	-150.01	369.67	542.76	175.58	338.39	320.06	63.209	402.58	741.47	-316.21	404.62	1471.8	69.314	439.45	1271.2	168.67	299.81	236.45	61.439	382.1	863.09	-286.74	442.44	733.05	-256.8	465.45	623.33	175.41	272.41	146.16	55.04	356.03	24.138	30.297	483.71	979.77	293.92	299.47	43.283	25.986	551.71	1147.6	14.987	598.22	771.66	270.59	582.83	1461.3	43.599	393.18	631.39	203.62	357.18	443.21	154.24	150.51	67.893	79.695	283.14	34.864	84.008	417.54	713.19	231.78	282.79	238.74	132.76	602.74	561.04	-132.51	559.68	641.38	-153.85	212.83	87.522	18.662	511.16	719.56	-175.72	370.83	984.24	-250.11	609.85	683.3	-119.39	760.44	190.08	-41.132	217.09	76.88	99.274	696.74	263.47	-110.59	492	883.34	160.75	728.51	28.719	-36.957	862.9	106.94	-48.351	528.51	840.51	-138.87	751.54	79.135	-83.041	844.9	80.173	-98.799	911.77	111.18	-66.758	701.96	363.29	-46.525	773.54	93.813	-7.8184	722.35	273.44	-44.691
